HIERARCHY
ROOT reference
{
  OFFSET 0 0 0
  CHANNELS 6 Xposition Yposition Zposition Zrotation Xrotation Yrotation
  JOINT Hips
  {
    OFFSET 339.145 90.8604 236.464
    CHANNELS 3 Zrotation Xrotation Yrotation
    JOINT RightUpLeg
    {
      OFFSET -9.24113 -1.522 -0.0337757
      CHANNELS 3 Zrotation Xrotation Yrotation
      JOINT RightLeg
      {
        OFFSET 0.0344394 -41.8985 0.100154
        CHANNELS 3 Zrotation Xrotation Yrotation
        JOINT RightFoot
        {
          OFFSET -0.415571 -42.0751 0.023027
          CHANNELS 3 Zrotation Xrotation Yrotation
          End Site
          {
            OFFSET 0 -7.69 17.5
          }
        }
      }
    }
    JOINT LeftUpLeg
    {
      OFFSET 9.30897 -1.67379 -0.0291548
      CHANNELS 3 Zrotation Xrotation Yrotation
      JOINT LeftLeg
      {
        OFFSET 0.0832755 -41.864 -0.14338
        CHANNELS 3 Zrotation Xrotation Yrotation
        JOINT LeftFoot
        {
          OFFSET 0.17151 -41.5225 0.735469
          CHANNELS 3 Zrotation Xrotation Yrotation
          End Site
          {
            OFFSET 0 -7.69 17.5
          }
        }
      }
    }
    JOINT Spine
    {
      OFFSET 0.00853273 14.2903 0.0777264
      CHANNELS 3 Zrotation Xrotation Yrotation
      JOINT Spine1
      {
        OFFSET 0.0173944 9.71323 0.029081
        CHANNELS 3 Zrotation Xrotation Yrotation
        JOINT Spine2
        {
          OFFSET 0.0412483 10.1247 -0.0145163
          CHANNELS 3 Zrotation Xrotation Yrotation
          JOINT Spine3
          {
            OFFSET 0.0279063 9.71793 0.00755232
            CHANNELS 3 Zrotation Xrotation Yrotation
            JOINT Neck
            {
              OFFSET 0.0852486 10.3712 0.0268485
              CHANNELS 3 Zrotation Xrotation Yrotation
              JOINT Head
              {
                OFFSET 0.0739267 9.48251 0.0332551
                CHANNELS 3 Zrotation Xrotation Yrotation
                End Site
                {
                  OFFSET 0 15.95 0
                }
              }
            }
            JOINT RightShoulder
            {
              OFFSET -3.14957 6.95772 0.0300988
              CHANNELS 3 Zrotation Xrotation Yrotation
              JOINT RightArm
              {
                OFFSET -12.7513 0.0411148 0.0791701
                CHANNELS 3 Zrotation Xrotation Yrotation
                JOINT RightForeArm
                {
                  OFFSET -26.4959 0.0361336 0.259434
                  CHANNELS 3 Zrotation Xrotation Yrotation
                  JOINT RightHand
                  {
                    OFFSET -25.9829 -0.0837334 0.191464
                    CHANNELS 3 Zrotation Xrotation Yrotation
                    JOINT RightHandThumb1
                    {
                      OFFSET -2.48905 0.190105 3.12053
                      CHANNELS 3 Zrotation Xrotation Yrotation
                      JOINT RightHandThumb2
                      {
                        OFFSET -3.68274 0 0
                        CHANNELS 3 Zrotation Xrotation Yrotation
                        JOINT RightHandThumb3
                        {
                          OFFSET -2.55832 0 0
                          CHANNELS 3 Zrotation Xrotation Yrotation
                          End Site
                          {
                            OFFSET -2.194 0 0
                          }
                        }
                      }
                    }
                    JOINT RightInHandIndex
                    {
                      OFFSET -3.22368 0.508421 1.97842
                      CHANNELS 3 Zrotation Xrotation Yrotation
                      JOINT RightHandIndex1
                      {
                        OFFSET -5.21684 -0.091368 0.999158
                        CHANNELS 3 Zrotation Xrotation Yrotation
                        JOINT RightHandIndex2
                        {
                          OFFSET -3.61937 0 0
                          CHANNELS 3 Zrotation Xrotation Yrotation
                          JOINT RightHandIndex3
                          {
                            OFFSET -2.0521 0 0
                            CHANNELS 3 Zrotation Xrotation Yrotation
                            End Site
                            {
                              OFFSET -1.805 0 0
                            }
                          }
                        }
                      }
                    }
                    JOINT RightInHandMiddle
                    {
                      OFFSET -3.38211 0.517263 0.756737
                      CHANNELS 3 Zrotation Xrotation Yrotation
                      JOINT RightHandMiddle1
                      {
                        OFFSET -5.17411 -0.084 0.313895
                        CHANNELS 3 Zrotation Xrotation Yrotation
                        JOINT RightHandMiddle2
                        {
                          OFFSET -3.94947 0 0
                          CHANNELS 3 Zrotation Xrotation Yrotation
                          JOINT RightHandMiddle3
                          {
                            OFFSET -2.47579 0 0
                            CHANNELS 3 Zrotation Xrotation Yrotation
                            End Site
                            {
                              OFFSET -1.975 0 0
                            }
                          }
                        }
                      }
                    }
                    JOINT RightInHandRing
                    {
                      OFFSET -3.36516 0.537895 -0.128947
                      CHANNELS 3 Zrotation Xrotation Yrotation
                      JOINT RightHandRing1
                      {
                        OFFSET -4.63474 -0.022105 -0.478947
                        CHANNELS 3 Zrotation Xrotation Yrotation
                        JOINT RightHandRing2
                        {
                          OFFSET -3.44238 0 0
                          CHANNELS 3 Zrotation Xrotation Yrotation
                          JOINT RightHandRing3
                          {
                            OFFSET -2.3881 0 0
                            CHANNELS 3 Zrotation Xrotation Yrotation
                            End Site
                            {
                              OFFSET -1.857 0 0
                            }
                          }
                        }
                      }
                    }
                    JOINT RightInHandPinky
                    {
                      OFFSET -3.16105 0.469368 -1.20179
                      CHANNELS 3 Zrotation Xrotation Yrotation
                      JOINT RightHandPinky1
                      {
                        OFFSET -4.14105 -0.022105 -1.09053
                        CHANNELS 3 Zrotation Xrotation Yrotation
                        JOINT RightHandPinky2
                        {
                          OFFSET -2.75653 0 0
                          CHANNELS 3 Zrotation Xrotation Yrotation
                          JOINT RightHandPinky3
                          {
                            OFFSET -1.74189 0 0
                            CHANNELS 3 Zrotation Xrotation Yrotation
                            End Site
                            {
                              OFFSET -1.645 0 0
                            }
                          }
                        }
                      }
                    }
                  }
                }
              }
            }
            JOINT LeftShoulder
            {
              OFFSET 3.25273 6.91522 -0.0295735
              CHANNELS 3 Zrotation Xrotation Yrotation
              JOINT LeftArm
              {
                OFFSET 12.7785 0.0134102 -0.0213482
                CHANNELS 3 Zrotation Xrotation Yrotation
                JOINT LeftForeArm
                {
                  OFFSET 26.5044 -0.0446277 0.0404034
                  CHANNELS 3 Zrotation Xrotation Yrotation
                  JOINT LeftHand
                  {
                    OFFSET 25.9955 -0.0467726 -0.0166804
                    CHANNELS 3 Zrotation Xrotation Yrotation
                    JOINT LeftHandThumb1
                    {
                      OFFSET 2.48905 0.190105 3.12053
                      CHANNELS 3 Zrotation Xrotation Yrotation
                      JOINT LeftHandThumb2
                      {
                        OFFSET 3.68274 0 0
                        CHANNELS 3 Zrotation Xrotation Yrotation
                        JOINT LeftHandThumb3
                        {
                          OFFSET 2.55832 0 0
                          CHANNELS 3 Zrotation Xrotation Yrotation
                          End Site
                          {
                            OFFSET 2.194 0 0
                          }
                        }
                      }
                    }
                    JOINT LeftInHandIndex
                    {
                      OFFSET 3.22368 0.508421 1.97842
                      CHANNELS 3 Zrotation Xrotation Yrotation
                      JOINT LeftHandIndex1
                      {
                        OFFSET 5.21684 -0.091368 0.999158
                        CHANNELS 3 Zrotation Xrotation Yrotation
                        JOINT LeftHandIndex2
                        {
                          OFFSET 3.61937 0 0
                          CHANNELS 3 Zrotation Xrotation Yrotation
                          JOINT LeftHandIndex3
                          {
                            OFFSET 2.0521 0 0
                            CHANNELS 3 Zrotation Xrotation Yrotation
                            End Site
                            {
                              OFFSET 1.805 0 0
                            }
                          }
                        }
                      }
                    }
                    JOINT LeftInHandMiddle
                    {
                      OFFSET 3.38211 0.517263 0.756737
                      CHANNELS 3 Zrotation Xrotation Yrotation
                      JOINT LeftHandMiddle1
                      {
                        OFFSET 5.17411 -0.084 0.313895
                        CHANNELS 3 Zrotation Xrotation Yrotation
                        JOINT LeftHandMiddle2
                        {
                          OFFSET 3.94947 0 0
                          CHANNELS 3 Zrotation Xrotation Yrotation
                          JOINT LeftHandMiddle3
                          {
                            OFFSET 2.47579 0 0
                            CHANNELS 3 Zrotation Xrotation Yrotation
                            End Site
                            {
                              OFFSET 1.975 0 0
                            }
                          }
                        }
                      }
                    }
                    JOINT LeftInHandRing
                    {
                      OFFSET 3.36516 0.537895 -0.128947
                      CHANNELS 3 Zrotation Xrotation Yrotation
                      JOINT LeftHandRing1
                      {
                        OFFSET 4.63474 -0.022105 -0.478947
                        CHANNELS 3 Zrotation Xrotation Yrotation
                        JOINT LeftHandRing2
                        {
                          OFFSET 3.44238 0 0
                          CHANNELS 3 Zrotation Xrotation Yrotation
                          JOINT LeftHandRing3
                          {
                            OFFSET 2.3881 0 0
                            CHANNELS 3 Zrotation Xrotation Yrotation
                            End Site
                            {
                              OFFSET 1.857 0 0
                            }
                          }
                        }
                      }
                    }
                    JOINT LeftInHandPinky
                    {
                      OFFSET 3.16105 0.469368 -1.20179
                      CHANNELS 3 Zrotation Xrotation Yrotation
                      JOINT LeftHandPinky1
                      {
                        OFFSET 4.14105 -0.022105 -1.09053
                        CHANNELS 3 Zrotation Xrotation Yrotation
                        JOINT LeftHandPinky2
                        {
                          OFFSET 2.75653 0 0
                          CHANNELS 3 Zrotation Xrotation Yrotation
                          JOINT LeftHandPinky3
                          {
                            OFFSET 1.74189 0 0
                            CHANNELS 3 Zrotation Xrotation Yrotation
                            End Site
                            {
                              OFFSET 1.645 0 0
                            }
                          }
                        }
                      }
                    }
                  }
                }
              }
            }
          }
        }
      }
    }
  }
}
MOTION
Frames: 2
Frame Time: 0.00833333
1.500000000000000000e+02 0.000000000000000000e+00 0.000000000000000000e+00 0.000000000000000000e+00 0.000000000000000000e+00 -0.000000000000000000e+00 -4.765328164622168600e-02 -5.239940396864208039e-02 -8.681064096902363358e-02 -1.776131941057122049e-02 6.102844704848806034e-02 1.092426499374892918e-01 -7.087456503629676816e-03 -7.360089563820841792e-03 -9.650892893461693323e-02 2.390204924729208424e-02 2.713823966050870132e-03 6.433710428678435234e-02 -3.235584649133429330e-02 7.151528741784182741e-02 6.439528759520855850e-03 -8.579719610766278759e-02 -5.283398370841950464e-02 1.023532492902040486e-01 -1.352152101287169318e-02 -1.127026823354580765e-02 7.763997320587498301e-03 -2.860266894313584149e-02 -6.246663524679415755e-03 3.558157002895580984e-02 -7.278310365641596502e-03 -2.508038317920537746e-03 8.947839227389103173e-03 -1.182073338715935312e-02 -3.419983867329207290e-03 1.623778919954945582e-02 3.862258652090988742e-05 3.537898147410180566e-04 -1.492038610354334566e-03 1.293183917215812032e-03 -1.167222063918687408e-02 -6.093098832038750662e-02 -4.559011806077293422e-03 -2.383887462815664771e-02 3.281293526330344296e-02 -2.515550685427656551e-03 2.061487973293044118e-02 1.908554772512281450e-01 -9.105924415546128303e-01 -3.507215784444517315e-01 -8.805027978538623179e-01 2.195680421077534361e-01 2.301988826789400366e-01 2.837133548990268886e-02 -9.375480234214189634e-02 1.573391078528627376e-02 -1.005782717020395067e-01 0.000000000000000000e+00 0.000000000000000000e+00 0.000000000000000000e+00 1.473722153792981500e-14 7.158501655815644667e-15 0.000000000000000000e+00 7.936325380462058874e-15 2.760173518381527568e-14 0.000000000000000000e+00 -1.910248926790039803e-15 4.380960795842216155e-16 -1.964335601215369883e-15 0.000000000000000000e+00 0.000000000000000000e+00 0.000000000000000000e+00 0.000000000000000000e+00 1.839542194145208377e-15 4.372008164271312768e-15 0.000000000000000000e+00 -5.118019174489227984e-15 -2.075025116305576047e-15 -1.910248926790039803e-15 4.380960795842216155e-16 -1.964335601215369883e-15 0.000000000000000000e+00 -1.769316051346550703e-15 2.211202493446706907e-15 0.000000000000000000e+00 2.007924759753946027e-15 3.568483591949305373e-15 0.000000000000000000e+00 -3.694082711385765398e-17 -1.205929493564636567e-15 -1.910248926790039803e-15 4.380960795842216155e-16 -1.964335601215369883e-15 0.000000000000000000e+00 0.000000000000000000e+00 0.000000000000000000e+00 0.000000000000000000e+00 -1.474351145798918070e-15 6.597008344043791510e-16 0.000000000000000000e+00 4.064513512234444187e-15 -1.935794155203783171e-15 -1.910248926790039803e-15 4.380960795842216155e-16 -1.964335601215369883e-15 0.000000000000000000e+00 0.000000000000000000e+00 0.000000000000000000e+00 0.000000000000000000e+00 -2.540059408521118328e-15 -4.429878034842464941e-15 0.000000000000000000e+00 3.668388510939552230e-17 -4.123661668198671752e-15 1.130234492083032338e-01 -7.495333236568367530e-02 1.697888258465074240e-01 -5.662423084693610914e-02 -1.231063970855699342e-03 -1.275635143642816494e-01 4.375301727156739873e-02 -3.980084157968018232e-02 -9.846737843052802419e-02 9.423694245472817241e-03 2.256100568118870123e-02 -1.788107645605118146e-01 0.000000000000000000e+00 0.000000000000000000e+00 0.000000000000000000e+00 3.369479123731814426e-15 -7.803813503943438606e-15 0.000000000000000000e+00 2.485143511060147555e-15 -5.502229423105887752e-15 0.000000000000000000e+00 -4.169737921345671441e-15 -7.069080274589290842e-16 2.259150064515894528e-16 0.000000000000000000e+00 0.000000000000000000e+00 0.000000000000000000e+00 0.000000000000000000e+00 3.222584644975312547e-15 2.949792055609254020e-15 0.000000000000000000e+00 3.991230232479617738e-15 7.273656257098717924e-17 -4.169737921345671441e-15 -7.069080274589290842e-16 2.259150064515894528e-16 0.000000000000000000e+00 8.771900260950921298e-16 5.912526553171307696e-16 0.000000000000000000e+00 -1.990322466563817660e-15 3.334608659885795630e-15 0.000000000000000000e+00 6.287457228105116189e-16 -1.913589329484548150e-15 -4.169737921345671441e-15 -7.069080274589290842e-16 2.259150064515894528e-16 0.000000000000000000e+00 0.000000000000000000e+00 0.000000000000000000e+00 0.000000000000000000e+00 -1.534521489123494147e-15 -2.073357081689140883e-15 0.000000000000000000e+00 1.659620769763652338e-16 -7.186949822307016613e-16 -4.169737921345671441e-15 -7.069080274589290842e-16 2.259150064515894528e-16 0.000000000000000000e+00 0.000000000000000000e+00 0.000000000000000000e+00 0.000000000000000000e+00 -1.018594540237277253e-16 -2.858184456193677321e-15 0.000000000000000000e+00 -3.128968781411687260e-16 -4.179656103197334277e-16
1.500000000000000000e+02 0.000000000000000000e+00 0.000000000000000000e+00 0.000000000000000000e+00 0.000000000000000000e+00 -0.000000000000000000e+00 -8.671226068948510723e-02 -6.966182799105902212e-02 -1.519315991891029560e-01 -3.088013187550877822e-02 1.237542383066454060e-01 1.190108679254386626e-01 -3.542590568658225691e-02 -2.533683332483030459e-02 -8.382855162640021063e-02 4.585253468362140289e-02 1.412964366461992582e-02 9.966258299450317382e-02 -6.354218676258378828e-02 1.789749853070061181e-01 3.373357204808717646e-02 -6.720116990998276085e-02 -3.105410509341378217e-02 1.585997174787206476e-01 -8.856035545462143110e-02 -8.743684643647775534e-02 -6.887629938245404260e-02 -5.714462146482259669e-02 8.683603429199568055e-03 1.385101399182773196e-01 -1.520864017880282221e-02 1.955588967170419565e-03 3.551228718275530050e-02 -2.496866255561172240e-02 3.474722812441620456e-03 5.836433421716874514e-02 3.211999996738254754e-05 4.846554955893046888e-04 -3.038903612045852284e-03 -1.353431119308202979e-02 -1.995409390791089664e-03 -3.232753381523648661e-01 -2.022800922310532060e-02 -8.397625320314829056e-02 1.585487065353886615e-01 1.861357211986280902e-02 -1.759284126650252633e-02 -6.001803813214660888e-02 -7.128624403924469499e-01 -2.911408947142216652e-01 -6.495669018890370960e-01 1.822838300666690947e-01 2.034200623257172436e-01 2.050064384509396945e-02 -9.692752118880193501e-02 8.980588666551872143e-03 -1.156590314202969039e-01 0.000000000000000000e+00 0.000000000000000000e+00 0.000000000000000000e+00 1.992994788590136345e-15 1.274174118373674894e-15 0.000000000000000000e+00 -2.178748724381038815e-15 3.097323862373176117e-15 0.000000000000000000e+00 -4.052574791506023253e-15 2.458146313033299545e-16 -1.150424851476371703e-15 0.000000000000000000e+00 0.000000000000000000e+00 0.000000000000000000e+00 0.000000000000000000e+00 -4.703967959999360201e-16 2.490023277176062140e-15 0.000000000000000000e+00 -1.400617217659272769e-15 3.255501529557724806e-17 -4.052574791506023253e-15 2.458146313033299545e-16 -1.150424851476371703e-15 0.000000000000000000e+00 1.357430351696238288e-15 1.068484587733392507e-15 0.000000000000000000e+00 2.026609180792803790e-15 1.348845421037483489e-15 0.000000000000000000e+00 -5.292748766879777729e-16 -3.979960972846639199e-16 -4.052574791506023253e-15 2.458146313033299545e-16 -1.150424851476371703e-15 0.000000000000000000e+00 0.000000000000000000e+00 0.000000000000000000e+00 0.000000000000000000e+00 -1.626547569921138578e-15 1.404907828289161443e-15 0.000000000000000000e+00 2.165287067310010210e-15 -8.244533223143077727e-16 -4.052574791506023253e-15 2.458146313033299545e-16 -1.150424851476371703e-15 0.000000000000000000e+00 0.000000000000000000e+00 0.000000000000000000e+00 0.000000000000000000e+00 -1.530012395255598920e-16 -1.447907021367434407e-15 0.000000000000000000e+00 6.588889488287832779e-16 -2.699288364231523976e-16 9.399743741928492935e-02 -1.408498111530801233e-01 6.529712955482099013e-02 -9.355195953266041975e-02 5.536162834539989051e-03 -1.156919921207540530e-01 1.080910040333249444e-02 -2.472906104274388492e-02 -1.774944604344094040e-02 -2.569682025987383468e-03 8.198180020459350237e-02 -3.259316693795579201e-01 0.000000000000000000e+00 0.000000000000000000e+00 0.000000000000000000e+00 -1.609776432280402572e-15 3.039588736354926572e-15 0.000000000000000000e+00 -9.897347961933814174e-16 4.330051842588587786e-15 0.000000000000000000e+00 1.695843403266154471e-15 1.976827338167243604e-16 4.489645063432856415e-16 0.000000000000000000e+00 0.000000000000000000e+00 0.000000000000000000e+00 0.000000000000000000e+00 -4.270171857840511697e-16 2.111089709600084999e-16 0.000000000000000000e+00 -1.160299324602343563e-15 -4.420773924190791444e-16 1.695843403266154471e-15 1.976827338167243604e-16 4.489645063432856415e-16 0.000000000000000000e+00 8.327558640184943332e-16 -9.611860499838925119e-16 0.000000000000000000e+00 8.137470097195693214e-16 3.076829171585087894e-17 0.000000000000000000e+00 7.901306197118143884e-17 -3.509450326739650995e-16 1.695843403266154471e-15 1.976827338167243604e-16 4.489645063432856415e-16 0.000000000000000000e+00 0.000000000000000000e+00 0.000000000000000000e+00 0.000000000000000000e+00 1.118813555221443986e-15 -9.209241079821492547e-16 0.000000000000000000e+00 1.242735804526263902e-16 2.449386967867396586e-16 1.695843403266154471e-15 1.976827338167243604e-16 4.489645063432856415e-16 0.000000000000000000e+00 0.000000000000000000e+00 0.000000000000000000e+00 0.000000000000000000e+00 2.397821037946257521e-16 9.787843965562666661e-16 0.000000000000000000e+00 -1.538134416023748778e-15 7.879888106064669242e-16
